<mxfile host="app.diagrams.net" modified="2023-11-23T20:40:49.579Z" agent="Mozilla/5.0 (Windows NT 10.0; Win64; x64) AppleWebKit/537.36 (KHTML, like Gecko) Chrome/119.0.0.0 Safari/537.36" etag="1pqrsjIuT7qCnuDhbdT4" version="22.1.3" type="github">
  <diagram name="Page-1" id="xUkjQPAeVtdxzQ2MpNLN">
    <mxGraphModel dx="1450" dy="1491" grid="1" gridSize="10" guides="1" tooltips="1" connect="1" arrows="1" fold="1" page="0" pageScale="1" pageWidth="827" pageHeight="1169" background="#000000" math="0" shadow="0">
      <root>
        <mxCell id="0" />
        <mxCell id="1" parent="0" />
        <mxCell id="KiqSlgqJgFh_yMG5NnQz-4" value="AWS Cloud" style="sketch=0;outlineConnect=0;gradientColor=none;html=1;whiteSpace=wrap;fontSize=12;fontStyle=0;shape=mxgraph.aws4.group;grIcon=mxgraph.aws4.group_aws_cloud;strokeColor=#FF99CC;fillColor=none;verticalAlign=top;align=left;spacingLeft=30;fontColor=#AAB7B8;" vertex="1" parent="1">
          <mxGeometry x="-90" y="-660" width="970" height="580" as="geometry" />
        </mxCell>
        <mxCell id="KiqSlgqJgFh_yMG5NnQz-21" value="" style="edgeStyle=orthogonalEdgeStyle;rounded=0;orthogonalLoop=1;jettySize=auto;html=1;strokeColor=#FFFFFF;endArrow=classic;endFill=1;" edge="1" parent="1" source="KiqSlgqJgFh_yMG5NnQz-5" target="KiqSlgqJgFh_yMG5NnQz-15">
          <mxGeometry relative="1" as="geometry" />
        </mxCell>
        <mxCell id="KiqSlgqJgFh_yMG5NnQz-5" value="" style="sketch=0;outlineConnect=0;fontColor=#232F3E;gradientColor=none;fillColor=#8C4FFF;strokeColor=none;dashed=0;verticalLabelPosition=bottom;verticalAlign=top;align=center;html=1;fontSize=12;fontStyle=0;aspect=fixed;pointerEvents=1;shape=mxgraph.aws4.route_53_resolver_dns_firewall;" vertex="1" parent="1">
          <mxGeometry x="375" y="-680" width="40" height="40" as="geometry" />
        </mxCell>
        <mxCell id="KiqSlgqJgFh_yMG5NnQz-13" style="edgeStyle=orthogonalEdgeStyle;orthogonalLoop=1;jettySize=auto;html=1;rounded=0;startArrow=classic;startFill=1;strokeColor=#FFFFFF;" edge="1" parent="1" source="KiqSlgqJgFh_yMG5NnQz-11" target="KiqSlgqJgFh_yMG5NnQz-5">
          <mxGeometry relative="1" as="geometry">
            <Array as="points">
              <mxPoint x="493" y="-701" />
              <mxPoint x="493" y="-700" />
              <mxPoint x="395" y="-700" />
            </Array>
          </mxGeometry>
        </mxCell>
        <mxCell id="KiqSlgqJgFh_yMG5NnQz-11" value="" style="sketch=0;outlineConnect=0;fontColor=#232F3E;gradientColor=none;fillColor=#67AB9F;strokeColor=none;dashed=0;verticalLabelPosition=bottom;verticalAlign=top;align=center;html=1;fontSize=12;fontStyle=0;aspect=fixed;pointerEvents=1;shape=mxgraph.aws4.users;" vertex="1" parent="1">
          <mxGeometry x="570" y="-730" width="58" height="58" as="geometry" />
        </mxCell>
        <mxCell id="KiqSlgqJgFh_yMG5NnQz-14" value="VPC" style="sketch=0;outlineConnect=0;gradientColor=none;html=1;whiteSpace=wrap;fontSize=12;fontStyle=0;shape=mxgraph.aws4.group;grIcon=mxgraph.aws4.group_vpc;strokeColor=#CCFF99;fillColor=none;verticalAlign=top;align=left;spacingLeft=30;fontColor=#879196;dashed=0;" vertex="1" parent="1">
          <mxGeometry x="-60" y="-560" width="920" height="430" as="geometry" />
        </mxCell>
        <mxCell id="KiqSlgqJgFh_yMG5NnQz-15" value="" style="sketch=0;outlineConnect=0;fontColor=#232F3E;gradientColor=none;fillColor=#8C4FFF;strokeColor=none;dashed=0;verticalLabelPosition=bottom;verticalAlign=top;align=center;html=1;fontSize=12;fontStyle=0;aspect=fixed;pointerEvents=1;shape=mxgraph.aws4.internet_gateway;" vertex="1" parent="1">
          <mxGeometry x="375" y="-580" width="38" height="38" as="geometry" />
        </mxCell>
        <mxCell id="KiqSlgqJgFh_yMG5NnQz-24" style="edgeStyle=orthogonalEdgeStyle;rounded=0;orthogonalLoop=1;jettySize=auto;html=1;exitX=0;exitY=0.5;exitDx=0;exitDy=0;" edge="1" parent="1" source="KiqSlgqJgFh_yMG5NnQz-23" target="KiqSlgqJgFh_yMG5NnQz-14">
          <mxGeometry relative="1" as="geometry" />
        </mxCell>
        <mxCell id="KiqSlgqJgFh_yMG5NnQz-23" value="&lt;span style=&quot;background-color: initial;&quot;&gt;&lt;font&gt;Availability Zone&lt;/font&gt;&lt;/span&gt;" style="fillColor=none;strokeColor=#FFB366;verticalAlign=top;fontStyle=0;fontColor=#FFFFFF;whiteSpace=wrap;html=1;" vertex="1" parent="1">
          <mxGeometry x="440" y="-590" width="400" height="490" as="geometry" />
        </mxCell>
        <object label="Availability Zone" id="KiqSlgqJgFh_yMG5NnQz-22">
          <mxCell style="fillColor=none;strokeColor=#FF9933;verticalAlign=top;fontStyle=0;fontColor=#FFFFFF;whiteSpace=wrap;html=1;fontFamily=Helvetica;" vertex="1" parent="1">
            <mxGeometry x="-10" y="-590" width="370" height="490" as="geometry" />
          </mxCell>
        </object>
        <mxCell id="KiqSlgqJgFh_yMG5NnQz-31" value="&lt;font color=&quot;#ffffff&quot;&gt;Public subnet&lt;/font&gt;" style="points=[[0,0],[0.25,0],[0.5,0],[0.75,0],[1,0],[1,0.25],[1,0.5],[1,0.75],[1,1],[0.75,1],[0.5,1],[0.25,1],[0,1],[0,0.75],[0,0.5],[0,0.25]];outlineConnect=0;html=1;whiteSpace=wrap;fontSize=12;fontStyle=0;container=1;pointerEvents=0;collapsible=0;recursiveResize=0;shape=mxgraph.aws4.group;grIcon=mxgraph.aws4.group_security_group;grStroke=0;verticalAlign=top;align=left;spacingLeft=30;dashed=0;fillColor=#1A3300;strokeColor=#82b366;" vertex="1" parent="1">
          <mxGeometry x="40" y="-550" width="240" height="110" as="geometry" />
        </mxCell>
        <mxCell id="KiqSlgqJgFh_yMG5NnQz-58" value="" style="sketch=0;outlineConnect=0;fontColor=#232F3E;gradientColor=none;fillColor=#8C4FFF;strokeColor=none;verticalLabelPosition=bottom;verticalAlign=top;align=center;html=1;fontSize=12;fontStyle=0;aspect=fixed;pointerEvents=1;shape=mxgraph.aws4.nat_gateway;" vertex="1" parent="KiqSlgqJgFh_yMG5NnQz-31">
          <mxGeometry x="90" y="30" width="40" height="40" as="geometry" />
        </mxCell>
        <mxCell id="KiqSlgqJgFh_yMG5NnQz-72" style="edgeStyle=orthogonalEdgeStyle;rounded=0;orthogonalLoop=1;jettySize=auto;html=1;exitX=0.5;exitY=0;exitDx=0;exitDy=0;" edge="1" parent="1" source="KiqSlgqJgFh_yMG5NnQz-32" target="KiqSlgqJgFh_yMG5NnQz-15">
          <mxGeometry relative="1" as="geometry">
            <mxPoint x="410" y="-410" as="targetPoint" />
            <Array as="points">
              <mxPoint x="610" y="-480" />
              <mxPoint x="490" y="-480" />
              <mxPoint x="490" y="-420" />
              <mxPoint x="470" y="-420" />
              <mxPoint x="470" y="-561" />
            </Array>
          </mxGeometry>
        </mxCell>
        <mxCell id="KiqSlgqJgFh_yMG5NnQz-32" value="&lt;font color=&quot;#ffffff&quot;&gt;Public subnet&lt;/font&gt;" style="points=[[0,0],[0.25,0],[0.5,0],[0.75,0],[1,0],[1,0.25],[1,0.5],[1,0.75],[1,1],[0.75,1],[0.5,1],[0.25,1],[0,1],[0,0.75],[0,0.5],[0,0.25]];outlineConnect=0;html=1;whiteSpace=wrap;fontSize=12;fontStyle=0;container=1;pointerEvents=0;collapsible=0;recursiveResize=0;shape=mxgraph.aws4.group;grIcon=mxgraph.aws4.group_security_group;grStroke=0;strokeColor=#82b366;fillColor=#1A3300;verticalAlign=top;align=left;spacingLeft=30;dashed=0;" vertex="1" parent="1">
          <mxGeometry x="500" y="-550" width="220" height="110" as="geometry" />
        </mxCell>
        <mxCell id="KiqSlgqJgFh_yMG5NnQz-59" value="" style="sketch=0;outlineConnect=0;fontColor=#232F3E;gradientColor=none;fillColor=#8C4FFF;strokeColor=none;dashed=0;verticalLabelPosition=bottom;verticalAlign=top;align=center;html=1;fontSize=12;fontStyle=0;aspect=fixed;pointerEvents=1;shape=mxgraph.aws4.nat_gateway;" vertex="1" parent="KiqSlgqJgFh_yMG5NnQz-32">
          <mxGeometry x="100" y="20" width="44.5" height="44.5" as="geometry" />
        </mxCell>
        <mxCell id="KiqSlgqJgFh_yMG5NnQz-34" value="Private subnet" style="points=[[0,0],[0.25,0],[0.5,0],[0.75,0],[1,0],[1,0.25],[1,0.5],[1,0.75],[1,1],[0.75,1],[0.5,1],[0.25,1],[0,1],[0,0.75],[0,0.5],[0,0.25]];outlineConnect=0;gradientColor=none;html=1;whiteSpace=wrap;fontSize=12;fontStyle=0;container=1;pointerEvents=0;collapsible=0;recursiveResize=0;shape=mxgraph.aws4.group;grIcon=mxgraph.aws4.group_security_group;grStroke=0;strokeColor=#00A4A6;fillColor=#001933;verticalAlign=top;align=left;spacingLeft=30;fontColor=#147EBA;dashed=0;" vertex="1" parent="1">
          <mxGeometry x="500" y="-400" width="230" height="110" as="geometry" />
        </mxCell>
        <mxCell id="KiqSlgqJgFh_yMG5NnQz-35" value="Private subnet" style="points=[[0,0],[0.25,0],[0.5,0],[0.75,0],[1,0],[1,0.25],[1,0.5],[1,0.75],[1,1],[0.75,1],[0.5,1],[0.25,1],[0,1],[0,0.75],[0,0.5],[0,0.25]];outlineConnect=0;gradientColor=none;html=1;whiteSpace=wrap;fontSize=12;fontStyle=0;container=1;pointerEvents=0;collapsible=0;recursiveResize=0;shape=mxgraph.aws4.group;grIcon=mxgraph.aws4.group_security_group;grStroke=0;strokeColor=#00A4A6;fillColor=#001933;verticalAlign=top;align=left;spacingLeft=30;fontColor=#147EBA;dashed=0;" vertex="1" parent="1">
          <mxGeometry x="40" y="-400" width="240" height="110" as="geometry" />
        </mxCell>
        <mxCell id="KiqSlgqJgFh_yMG5NnQz-51" value="Private subnet" style="points=[[0,0],[0.25,0],[0.5,0],[0.75,0],[1,0],[1,0.25],[1,0.5],[1,0.75],[1,1],[0.75,1],[0.5,1],[0.25,1],[0,1],[0,0.75],[0,0.5],[0,0.25]];outlineConnect=0;gradientColor=none;html=1;whiteSpace=wrap;fontSize=12;fontStyle=0;container=1;pointerEvents=0;collapsible=0;recursiveResize=0;shape=mxgraph.aws4.group;grIcon=mxgraph.aws4.group_security_group;grStroke=0;strokeColor=#00A4A6;fillColor=#001933;verticalAlign=top;align=left;spacingLeft=30;fontColor=#147EBA;dashed=0;" vertex="1" parent="1">
          <mxGeometry x="40" y="-260" width="240" height="110" as="geometry" />
        </mxCell>
        <mxCell id="KiqSlgqJgFh_yMG5NnQz-53" value="Private subnet" style="points=[[0,0],[0.25,0],[0.5,0],[0.75,0],[1,0],[1,0.25],[1,0.5],[1,0.75],[1,1],[0.75,1],[0.5,1],[0.25,1],[0,1],[0,0.75],[0,0.5],[0,0.25]];outlineConnect=0;gradientColor=none;html=1;whiteSpace=wrap;fontSize=12;fontStyle=0;container=1;pointerEvents=0;collapsible=0;recursiveResize=0;shape=mxgraph.aws4.group;grIcon=mxgraph.aws4.group_security_group;grStroke=0;strokeColor=#00A4A6;fillColor=#001933;verticalAlign=top;align=left;spacingLeft=30;fontColor=#147EBA;dashed=0;" vertex="1" parent="1">
          <mxGeometry x="500" y="-260" width="230" height="100" as="geometry" />
        </mxCell>
        <mxCell id="KiqSlgqJgFh_yMG5NnQz-65" value="" style="edgeStyle=orthogonalEdgeStyle;rounded=0;orthogonalLoop=1;jettySize=auto;html=1;" edge="1" parent="1">
          <mxGeometry relative="1" as="geometry">
            <mxPoint x="383" y="16.5" as="sourcePoint" />
            <mxPoint x="450" y="26.5" as="targetPoint" />
          </mxGeometry>
        </mxCell>
        <mxCell id="KiqSlgqJgFh_yMG5NnQz-67" value="" style="edgeStyle=orthogonalEdgeStyle;rounded=0;orthogonalLoop=1;jettySize=auto;html=1;" edge="1" parent="1">
          <mxGeometry relative="1" as="geometry">
            <mxPoint x="383" y="16.5" as="sourcePoint" />
            <mxPoint x="426.5" y="26.5" as="targetPoint" />
          </mxGeometry>
        </mxCell>
        <mxCell id="KiqSlgqJgFh_yMG5NnQz-69" style="edgeStyle=orthogonalEdgeStyle;rounded=0;orthogonalLoop=1;jettySize=auto;html=1;strokeColor=#FFFFFF;" edge="1" parent="1" source="KiqSlgqJgFh_yMG5NnQz-58" target="KiqSlgqJgFh_yMG5NnQz-15">
          <mxGeometry relative="1" as="geometry">
            <Array as="points">
              <mxPoint x="330" y="-500" />
              <mxPoint x="330" y="-561" />
            </Array>
          </mxGeometry>
        </mxCell>
        <mxCell id="KiqSlgqJgFh_yMG5NnQz-73" style="edgeStyle=orthogonalEdgeStyle;rounded=0;orthogonalLoop=1;jettySize=auto;html=1;strokeColor=#FFFFFF;" edge="1" parent="1" source="KiqSlgqJgFh_yMG5NnQz-59" target="KiqSlgqJgFh_yMG5NnQz-15">
          <mxGeometry relative="1" as="geometry">
            <Array as="points">
              <mxPoint x="460" y="-510" />
              <mxPoint x="460" y="-561" />
            </Array>
          </mxGeometry>
        </mxCell>
      </root>
    </mxGraphModel>
  </diagram>
</mxfile>
